<svg width="32" height="32" viewBox="0 0 32 32" fill="none" xmlns="http://www.w3.org/2000/svg">
<path fill-rule="evenodd" clip-rule="evenodd" d="M2.81924 18.0255C2.7179 17.3615 2.66724 16.6802 2.66724 16.0002C2.66724 8.64816 8.64857 2.66683 16.0006 2.66683C23.3526 2.66683 29.3339 8.64816 29.3339 16.0002C29.3339 23.3522 23.3526 29.3335 16.0006 29.3335C11.8299 29.3335 7.9779 27.4362 5.43124 24.1308C5.10457 23.7068 5.18457 23.0962 5.60724 22.7708C6.03124 22.4428 6.63924 22.5242 6.96857 22.9468C9.14324 25.7748 12.4366 27.3948 16.0006 27.3948C22.2832 27.3948 27.3952 22.2842 27.3952 16.0002C27.3952 9.71749 22.2832 4.60683 16.0006 4.60683C9.7179 4.60683 4.6059 9.71749 4.6059 16.0002C4.6059 16.5828 4.6499 17.1655 4.73657 17.7322C4.81657 18.2602 4.4539 18.7548 3.92457 18.8362C3.39257 18.9242 2.90057 18.5548 2.81924 18.0255ZM19.7262 16.0012C19.7262 16.2666 19.6208 16.5212 19.4315 16.7092L14.7835 21.3372C14.3915 21.7279 13.7582 21.7266 13.3688 21.3346C12.9795 20.9426 12.9795 20.3106 13.3715 19.9212L17.3088 16.0012L13.3715 12.0812C12.9795 11.6919 12.9795 11.0586 13.3688 10.6666C13.7582 10.2759 14.3915 10.2746 14.7835 10.6639L19.4315 15.2932C19.6208 15.4799 19.7262 15.7346 19.7262 16.0012Z" fill="#82CFED"/>
</svg>
